<mxfile host="Electron" agent="Mozilla/5.0 (Windows NT 10.0; Win64; x64) AppleWebKit/537.36 (KHTML, like Gecko) draw.io/26.1.1 Chrome/132.0.6834.210 Electron/34.3.3 Safari/537.36" version="26.1.1">
  <diagram name="PÃ¡gina-1" id="D4qrIfp3WgfNGUhJVWUn">
    <mxGraphModel dx="1020" dy="504" grid="1" gridSize="10" guides="1" tooltips="1" connect="1" arrows="1" fold="1" page="1" pageScale="1" pageWidth="827" pageHeight="1169" math="0" shadow="0">
      <root>
        <mxCell id="0" />
        <mxCell id="1" parent="0" />
        <mxCell id="HKPLdyxAoaTFwA3LmPq5-1" style="edgeStyle=orthogonalEdgeStyle;rounded=0;orthogonalLoop=1;jettySize=auto;html=1;exitX=0.5;exitY=1;exitDx=0;exitDy=0;entryX=0.5;entryY=0;entryDx=0;entryDy=0;" edge="1" parent="1" source="HKPLdyxAoaTFwA3LmPq5-2" target="HKPLdyxAoaTFwA3LmPq5-5">
          <mxGeometry relative="1" as="geometry" />
        </mxCell>
        <mxCell id="HKPLdyxAoaTFwA3LmPq5-2" value="" style="rounded=1;whiteSpace=wrap;html=1;" vertex="1" parent="1">
          <mxGeometry x="360" y="80" width="120" height="60" as="geometry" />
        </mxCell>
        <mxCell id="HKPLdyxAoaTFwA3LmPq5-3" value="Inicio" style="text;html=1;align=center;verticalAlign=middle;whiteSpace=wrap;rounded=0;" vertex="1" parent="1">
          <mxGeometry x="390" y="95" width="60" height="30" as="geometry" />
        </mxCell>
        <mxCell id="HKPLdyxAoaTFwA3LmPq5-4" style="edgeStyle=orthogonalEdgeStyle;rounded=0;orthogonalLoop=1;jettySize=auto;html=1;exitX=0.5;exitY=1;exitDx=0;exitDy=0;" edge="1" parent="1" source="HKPLdyxAoaTFwA3LmPq5-5">
          <mxGeometry relative="1" as="geometry">
            <mxPoint x="420" y="260" as="targetPoint" />
          </mxGeometry>
        </mxCell>
        <mxCell id="HKPLdyxAoaTFwA3LmPq5-5" value="" style="rounded=0;whiteSpace=wrap;html=1;" vertex="1" parent="1">
          <mxGeometry x="360" y="180" width="120" height="60" as="geometry" />
        </mxCell>
        <mxCell id="HKPLdyxAoaTFwA3LmPq5-6" value="declarar variables &quot;a&quot; y &quot;b&quot;como enteros" style="text;html=1;align=center;verticalAlign=middle;whiteSpace=wrap;rounded=0;" vertex="1" parent="1">
          <mxGeometry x="370" y="195" width="100" height="30" as="geometry" />
        </mxCell>
        <mxCell id="HKPLdyxAoaTFwA3LmPq5-7" value="" style="shape=manualInput;whiteSpace=wrap;html=1;" vertex="1" parent="1">
          <mxGeometry x="345" y="360" width="150" height="80" as="geometry" />
        </mxCell>
        <mxCell id="HKPLdyxAoaTFwA3LmPq5-8" style="edgeStyle=orthogonalEdgeStyle;rounded=0;orthogonalLoop=1;jettySize=auto;html=1;" edge="1" parent="1" source="HKPLdyxAoaTFwA3LmPq5-9" target="HKPLdyxAoaTFwA3LmPq5-17">
          <mxGeometry relative="1" as="geometry" />
        </mxCell>
        <mxCell id="HKPLdyxAoaTFwA3LmPq5-9" value="Entrada de valor para &quot;a&quot; y &quot;b&quot;" style="text;html=1;align=center;verticalAlign=middle;whiteSpace=wrap;rounded=0;" vertex="1" parent="1">
          <mxGeometry x="356" y="400" width="124" height="30" as="geometry" />
        </mxCell>
        <mxCell id="HKPLdyxAoaTFwA3LmPq5-10" style="edgeStyle=orthogonalEdgeStyle;rounded=0;orthogonalLoop=1;jettySize=auto;html=1;exitX=0.5;exitY=1;exitDx=0;exitDy=0;entryX=0.5;entryY=0;entryDx=0;entryDy=0;" edge="1" parent="1" source="HKPLdyxAoaTFwA3LmPq5-11" target="HKPLdyxAoaTFwA3LmPq5-7">
          <mxGeometry relative="1" as="geometry" />
        </mxCell>
        <mxCell id="HKPLdyxAoaTFwA3LmPq5-11" value="" style="shape=parallelogram;perimeter=parallelogramPerimeter;whiteSpace=wrap;html=1;fixedSize=1;" vertex="1" parent="1">
          <mxGeometry x="310" y="265" width="220" height="60" as="geometry" />
        </mxCell>
        <mxCell id="HKPLdyxAoaTFwA3LmPq5-12" value="Mostrar en pantalla &quot;Introduzca dos numeros&quot;" style="text;html=1;align=center;verticalAlign=middle;whiteSpace=wrap;rounded=0;" vertex="1" parent="1">
          <mxGeometry x="350" y="280" width="145" height="30" as="geometry" />
        </mxCell>
        <mxCell id="HKPLdyxAoaTFwA3LmPq5-13" value="" style="rounded=1;whiteSpace=wrap;html=1;" vertex="1" parent="1">
          <mxGeometry x="450" y="810" width="120" height="60" as="geometry" />
        </mxCell>
        <mxCell id="HKPLdyxAoaTFwA3LmPq5-14" value="Fin" style="text;html=1;align=center;verticalAlign=middle;whiteSpace=wrap;rounded=0;" vertex="1" parent="1">
          <mxGeometry x="484" y="825" width="60" height="30" as="geometry" />
        </mxCell>
        <mxCell id="HKPLdyxAoaTFwA3LmPq5-16" style="edgeStyle=orthogonalEdgeStyle;rounded=0;orthogonalLoop=1;jettySize=auto;html=1;exitX=0;exitY=0.5;exitDx=0;exitDy=0;entryX=0.5;entryY=0;entryDx=0;entryDy=0;" edge="1" parent="1" source="HKPLdyxAoaTFwA3LmPq5-17" target="HKPLdyxAoaTFwA3LmPq5-20">
          <mxGeometry relative="1" as="geometry" />
        </mxCell>
        <mxCell id="HKPLdyxAoaTFwA3LmPq5-36" style="edgeStyle=orthogonalEdgeStyle;rounded=0;orthogonalLoop=1;jettySize=auto;html=1;exitX=1;exitY=0.5;exitDx=0;exitDy=0;entryX=0.5;entryY=0;entryDx=0;entryDy=0;" edge="1" parent="1" source="HKPLdyxAoaTFwA3LmPq5-17" target="HKPLdyxAoaTFwA3LmPq5-29">
          <mxGeometry relative="1" as="geometry" />
        </mxCell>
        <mxCell id="HKPLdyxAoaTFwA3LmPq5-17" value="" style="rhombus;whiteSpace=wrap;html=1;" vertex="1" parent="1">
          <mxGeometry x="335" y="470" width="170" height="80" as="geometry" />
        </mxCell>
        <mxCell id="HKPLdyxAoaTFwA3LmPq5-18" value="a=b?" style="text;html=1;align=center;verticalAlign=middle;whiteSpace=wrap;rounded=0;" vertex="1" parent="1">
          <mxGeometry x="362" y="490" width="116" height="40" as="geometry" />
        </mxCell>
        <mxCell id="HKPLdyxAoaTFwA3LmPq5-31" style="edgeStyle=orthogonalEdgeStyle;rounded=0;orthogonalLoop=1;jettySize=auto;html=1;exitX=0.5;exitY=1;exitDx=0;exitDy=0;entryX=0.5;entryY=0;entryDx=0;entryDy=0;" edge="1" parent="1" source="HKPLdyxAoaTFwA3LmPq5-20" target="HKPLdyxAoaTFwA3LmPq5-13">
          <mxGeometry relative="1" as="geometry" />
        </mxCell>
        <mxCell id="HKPLdyxAoaTFwA3LmPq5-20" value="" style="shape=parallelogram;perimeter=parallelogramPerimeter;whiteSpace=wrap;html=1;fixedSize=1;" vertex="1" parent="1">
          <mxGeometry x="180" y="530" width="120" height="60" as="geometry" />
        </mxCell>
        <mxCell id="HKPLdyxAoaTFwA3LmPq5-23" value="Si" style="text;html=1;align=center;verticalAlign=middle;whiteSpace=wrap;rounded=0;" vertex="1" parent="1">
          <mxGeometry x="296" y="480" width="60" height="30" as="geometry" />
        </mxCell>
        <mxCell id="HKPLdyxAoaTFwA3LmPq5-24" value="No" style="text;html=1;align=center;verticalAlign=middle;whiteSpace=wrap;rounded=0;" vertex="1" parent="1">
          <mxGeometry x="495" y="480" width="60" height="30" as="geometry" />
        </mxCell>
        <mxCell id="HKPLdyxAoaTFwA3LmPq5-26" value="a = b" style="text;html=1;align=center;verticalAlign=middle;whiteSpace=wrap;rounded=0;" vertex="1" parent="1">
          <mxGeometry x="210" y="545" width="60" height="30" as="geometry" />
        </mxCell>
        <mxCell id="HKPLdyxAoaTFwA3LmPq5-27" value="&lt;h1 style=&quot;margin-top: 0px;&quot;&gt;&lt;font style=&quot;font-size: 14px;&quot;&gt;Randy Paniagua&lt;/font&gt;&lt;/h1&gt;" style="text;html=1;whiteSpace=wrap;overflow=hidden;rounded=0;" vertex="1" parent="1">
          <mxGeometry x="180" y="125" width="134" height="40" as="geometry" />
        </mxCell>
        <mxCell id="HKPLdyxAoaTFwA3LmPq5-39" style="edgeStyle=orthogonalEdgeStyle;rounded=0;orthogonalLoop=1;jettySize=auto;html=1;exitX=0;exitY=0.5;exitDx=0;exitDy=0;entryX=0.5;entryY=0;entryDx=0;entryDy=0;" edge="1" parent="1" source="HKPLdyxAoaTFwA3LmPq5-29" target="HKPLdyxAoaTFwA3LmPq5-37">
          <mxGeometry relative="1" as="geometry" />
        </mxCell>
        <mxCell id="HKPLdyxAoaTFwA3LmPq5-29" value="" style="rhombus;whiteSpace=wrap;html=1;" vertex="1" parent="1">
          <mxGeometry x="495" y="550" width="170" height="80" as="geometry" />
        </mxCell>
        <mxCell id="HKPLdyxAoaTFwA3LmPq5-30" value="a&amp;gt;b?" style="text;html=1;align=center;verticalAlign=middle;whiteSpace=wrap;rounded=0;" vertex="1" parent="1">
          <mxGeometry x="522" y="570" width="116" height="40" as="geometry" />
        </mxCell>
        <mxCell id="HKPLdyxAoaTFwA3LmPq5-41" style="edgeStyle=orthogonalEdgeStyle;rounded=0;orthogonalLoop=1;jettySize=auto;html=1;exitX=0;exitY=0.5;exitDx=0;exitDy=0;" edge="1" parent="1" source="HKPLdyxAoaTFwA3LmPq5-37">
          <mxGeometry relative="1" as="geometry">
            <mxPoint x="240" y="640" as="targetPoint" />
          </mxGeometry>
        </mxCell>
        <mxCell id="HKPLdyxAoaTFwA3LmPq5-37" value="" style="shape=parallelogram;perimeter=parallelogramPerimeter;whiteSpace=wrap;html=1;fixedSize=1;" vertex="1" parent="1">
          <mxGeometry x="354" y="610" width="120" height="60" as="geometry" />
        </mxCell>
        <mxCell id="HKPLdyxAoaTFwA3LmPq5-38" value="a&amp;gt;b" style="text;html=1;align=center;verticalAlign=middle;whiteSpace=wrap;rounded=0;" vertex="1" parent="1">
          <mxGeometry x="386" y="625" width="60" height="30" as="geometry" />
        </mxCell>
        <mxCell id="HKPLdyxAoaTFwA3LmPq5-40" value="Si" style="text;html=1;align=center;verticalAlign=middle;whiteSpace=wrap;rounded=0;" vertex="1" parent="1">
          <mxGeometry x="460" y="560" width="60" height="30" as="geometry" />
        </mxCell>
        <mxCell id="HKPLdyxAoaTFwA3LmPq5-45" value="No" style="text;html=1;align=center;verticalAlign=middle;whiteSpace=wrap;rounded=0;" vertex="1" parent="1">
          <mxGeometry x="650" y="560" width="60" height="30" as="geometry" />
        </mxCell>
        <mxCell id="HKPLdyxAoaTFwA3LmPq5-51" style="edgeStyle=orthogonalEdgeStyle;rounded=0;orthogonalLoop=1;jettySize=auto;html=1;exitX=0.5;exitY=1;exitDx=0;exitDy=0;" edge="1" parent="1" source="HKPLdyxAoaTFwA3LmPq5-46">
          <mxGeometry relative="1" as="geometry">
            <mxPoint x="510" y="810" as="targetPoint" />
          </mxGeometry>
        </mxCell>
        <mxCell id="HKPLdyxAoaTFwA3LmPq5-46" value="" style="shape=parallelogram;perimeter=parallelogramPerimeter;whiteSpace=wrap;html=1;fixedSize=1;" vertex="1" parent="1">
          <mxGeometry x="665" y="610" width="120" height="60" as="geometry" />
        </mxCell>
        <mxCell id="HKPLdyxAoaTFwA3LmPq5-47" value="a&amp;lt;b" style="text;html=1;align=center;verticalAlign=middle;whiteSpace=wrap;rounded=0;" vertex="1" parent="1">
          <mxGeometry x="697" y="625" width="60" height="30" as="geometry" />
        </mxCell>
        <mxCell id="HKPLdyxAoaTFwA3LmPq5-50" style="edgeStyle=orthogonalEdgeStyle;rounded=0;orthogonalLoop=1;jettySize=auto;html=1;exitX=1;exitY=0.5;exitDx=0;exitDy=0;entryX=0.569;entryY=-0.039;entryDx=0;entryDy=0;entryPerimeter=0;" edge="1" parent="1" source="HKPLdyxAoaTFwA3LmPq5-29" target="HKPLdyxAoaTFwA3LmPq5-46">
          <mxGeometry relative="1" as="geometry" />
        </mxCell>
      </root>
    </mxGraphModel>
  </diagram>
</mxfile>
